<svg id="Слой_1" data-name="Слой 1" xmlns="http://www.w3.org/2000/svg" viewBox="0 0 211.26 211.26">
	<defs>
		<style>
			.cls-1{fill:#4b4b4b;stroke:#000;stroke-miterlimit:10;}
		</style>
	</defs>
	<title>
		close
	</title>
	<path class="cls-1" d="M437.12,380.9a10.07,10.07,0,0,1,0,14.25l-1.46,1.46a10.07,10.07,0,0,1-14.25,0L335,310.15l-86.47,86.46a10.06,10.06,0,0,1-14.24,0l-1.47-1.46a10.09,10.09,0,0,1,0-14.25l86.46-86.46L232.77,208a10.07,10.07,0,0,1,0-14.24l1.47-1.47a10.07,10.07,0,0,1,14.24,0L335,278.72l86.46-86.46a10.09,10.09,0,0,1,14.25,0l1.46,1.47a10.06,10.06,0,0,1,0,14.24l-86.46,86.47Z" transform="translate(-229.32 -188.81)" />
</svg>
