<svg id="Слой_1" data-name="Слой 1" xmlns="http://www.w3.org/2000/svg" viewBox="0 0 38.36 47.66">
	<defs>
		<style>
			.cls-1{fill:none;stroke:#363636;stroke-miterlimit:10;}
		</style>
	</defs>
	<title>
		delivery
	</title>
	<line class="cls-1" x1="4.99" y1="33.38" x2="12.27" y2="44.14" />
	<path class="cls-1" d="M410.44,307.59l4.58-3.28a8.31,8.31,0,0,1,3.82-.64c1.94.22,8.23,1.14,8.23,1.14a2.13,2.13,0,0,1,2.32,1.63,1.89,1.89,0,0,1-1.13,2.49H423.4" transform="translate(-401.81 -274.36)" />
	<path class="cls-1" d="M431.29,308.93h.45s3.15-2.82,5.09-4.9a2.45,2.45,0,0,0-2.79-.5,2,2,0,0,0-1.12,1.14l-1.63,4.26h-3" transform="translate(-401.81 -274.36)" />
	<path class="cls-1" d="M436.78,304.08s1.7-.62,2.52.59a2.58,2.58,0,0,1,.15,2.35,1.42,1.42,0,0,1-.36.55l-5.24,5.17a3.67,3.67,0,0,1-2.59,1.05h-9.18a4,4,0,0,0-.85.09,16.35,16.35,0,0,0-6,2.39" transform="translate(-401.81 -274.36)" />
	<path class="cls-1" d="M436.61,302.07H413.94a.58.58,0,0,1-.6-.56L416,279.56a.58.58,0,0,1,.59-.56h17.3a.58.58,0,0,1,.6.56l2.68,21.95A.57.57,0,0,1,436.61,302.07Z" transform="translate(-401.81 -274.36)" />
	<line class="cls-1" x1="18.61" y1="24.66" x2="28.66" y2="24.66" />
	<ellipse cx="18.23" cy="9.38" rx="0.66" ry="0.63" />
	<ellipse cx="28.49" cy="9.38" rx="0.66" ry="0.63" />
	<path class="cls-1" d="M420.08,283.59v-7.45a1.32,1.32,0,0,1,1.35-1.28H429a1.32,1.32,0,0,1,1.35,1.28v7.45" transform="translate(-401.81 -274.36)" />
	<rect class="cls-1" x="404.84" y="307.49" width="8.76" height="12.94" rx="0.67" ry="0.67" transform="translate(-506.36 -5.89) rotate(-32.44)" />
</svg>
