<svg id="Слой_1" data-name="Слой 1" xmlns="http://www.w3.org/2000/svg" viewBox="0 0 40.52 35.05">
	<defs>
		<style>
			.cls-1{fill:none;stroke:#363636;stroke-miterlimit:10;}
		</style>
	</defs>
	<title>
		payment
	</title>
	<path class="cls-1" d="M439.76,305.73v5.74a3.24,3.24,0,0,1-3.23,3.24h-32a3.24,3.24,0,0,1-3.23-3.24V293.66a3.24,3.24,0,0,1,3.23-3.24h32a3.24,3.24,0,0,1,3.23,3.24v5.07" transform="translate(-400.84 -280.15)" />
	<path class="cls-1" d="M411,290.42l17.86-9.18a.86.86,0,0,1,1.15.37l4.53,8.81" transform="translate(-400.84 -280.15)" />
	<path class="cls-1" d="M410.84,290.46l11.61-9.61a.85.85,0,0,1,1.2.11l1.71,2.07" transform="translate(-400.84 -280.15)" />
	<path class="cls-1" d="M30.86,18.57h8.35a.8.8,0,0,1,.8.8v5.4a.8.8,0,0,1-.8.8H30.86a3.5,3.5,0,0,1-3.5-3.5v0a3.5,3.5,0,0,1,3.5-3.5Z" />
	<circle class="cls-1" cx="31.25" cy="22.07" r="1.75" />
</svg>
