<svg id="Слой_2" data-name="Слой 2" xmlns="http://www.w3.org/2000/svg" viewBox="0 0 56.69 56.69">
<style type="text/css">
		path{fill:#FF4B3B;
		}
	</style>
	<title>
		search
	</title>
	<path d="M216.54-51.83,201.31-67.07a22.91,22.91,0,0,0,5.14-14.49,23,23,0,0,0-23-23,23,23,0,0,0-23,23,23,23,0,0,0,23,23A22.84,22.84,0,0,0,198-63.75L213.21-48.5a2.36,2.36,0,0,0,1.64.66,2.37,2.37,0,0,0,2.37-2.37A2.31,2.31,0,0,0,216.54-51.83ZM183.43-63.42a18.1,18.1,0,0,1-18.1-18.11,18.1,18.1,0,0,1,18.1-18.11,18.11,18.11,0,0,1,18.11,18.11A18.11,18.11,0,0,1,183.43-63.42Z" transform="translate(-160.53 104.53)" />
</svg>
