<?xml version="1.0" encoding="utf-8"?>
<!-- Generator: Adobe Illustrator 22.0.1, SVG Export Plug-In . SVG Version: 6.00 Build 0)  -->
<svg version="1.1" id="Слой_1" xmlns="http://www.w3.org/2000/svg" xmlns:xlink="http://www.w3.org/1999/xlink" x="0px" y="0px"
	 viewBox="0 0 923.1 167.8" style="enable-background:new 0 0 923.1 167.8;" xml:space="preserve">
<style type="text/css">
	
</style>
<title>сolumbia-logo</title>
<path class="st0" d="M49.6,99.2c4.5,4.2,4.6,11.3,0.4,15.8c-0.1,0.1-0.2,0.3-0.4,0.4l-4,4c-4.2,4.5-11.3,4.6-15.8,0.4
	c-0.1-0.1-0.3-0.2-0.4-0.4l-26-26C-1,89.1-1.2,82.1,3.1,77.6c0.1-0.1,0.2-0.3,0.4-0.4l4-4c4.2-4.5,11.3-4.6,15.8-0.4
	c0.1,0.1,0.3,0.2,0.4,0.4L49.6,99.2z M46.7,49.6c-4.2-4.5-11.3-4.6-15.8-0.4c-0.1,0.1-0.3,0.2-0.4,0.4l-4,4
	c-4.5,4.2-4.6,11.3-0.4,15.8c0.1,0.1,0.2,0.3,0.4,0.4l26,26c4.2,4.5,11.3,4.6,15.8,0.4c0.1-0.1,0.3-0.2,0.4-0.4l4-4
	c4.5-4.2,4.6-11.3,0.4-15.8c-0.1-0.1-0.2-0.3-0.4-0.4L46.7,49.6z M115.9,72.7c-4.2-4.5-11.3-4.6-15.7-0.4c-0.1,0.1-0.3,0.3-0.4,0.4
	l-4,4c-4.5,4.3-4.6,11.3-0.4,15.8c0.1,0.1,0.2,0.3,0.4,0.4l26,25.9c4.2,4.5,11.3,4.6,15.8,0.4c0.1-0.1,0.3-0.2,0.4-0.4l4-4
	c4.5-4.3,4.6-11.3,0.4-15.8c-0.1-0.1-0.2-0.3-0.4-0.4L115.9,72.7z M139.5,49c-4.2-4.5-11.3-4.6-15.8-0.4c-0.1,0.1-0.3,0.2-0.4,0.4
	l-4,4c-4.5,4.3-4.6,11.3-0.4,15.8c0.1,0.1,0.2,0.3,0.4,0.4l26,25.9c4.2,4.5,11.3,4.6,15.7,0.4c0.1-0.1,0.3-0.3,0.4-0.4l4-4
	c4.5-4.3,4.6-11.3,0.4-15.8c-0.1-0.1-0.2-0.3-0.4-0.4L139.5,49z M96.3,23.6c4.5-4.2,4.6-11.3,0.4-15.8c-0.1-0.1-0.2-0.3-0.4-0.4
	l-4-4C88.1-1,81-1.1,76.5,3.1c-0.1,0.1-0.3,0.2-0.4,0.4L50.2,29.4c-4.5,4.3-4.6,11.3-0.4,15.8c0.1,0.1,0.2,0.3,0.4,0.4l4,4
	c4.2,4.5,11.3,4.6,15.7,0.4c0.1-0.1,0.3-0.3,0.4-0.4L96.3,23.6z M119.4,46.7c4.5-4.2,4.6-11.3,0.4-15.8c-0.1-0.1-0.2-0.3-0.4-0.4
	l-4-4c-4.2-4.5-11.3-4.6-15.8-0.4c-0.1,0.1-0.3,0.2-0.4,0.4l-25.9,26c-4.5,4.2-4.6,11.3-0.4,15.8c0.1,0.1,0.2,0.3,0.4,0.4l4,4
	c4.2,4.5,11.3,4.6,15.8,0.4c0.1-0.1,0.3-0.2,0.4-0.4L119.4,46.7z M96.3,114.7c4.5-4.3,4.6-11.3,0.4-15.8c-0.1-0.1-0.2-0.3-0.4-0.4
	l-4-4c-4.2-4.5-11.3-4.6-15.7-0.4c-0.1,0.1-0.3,0.3-0.4,0.4l-25.9,25.9c-4.5,4.3-4.6,11.3-0.4,15.8c0.1,0.1,0.2,0.3,0.4,0.4l4,4
	c4.2,4.5,11.3,4.6,15.8,0.4c0.1-0.1,0.3-0.2,0.4-0.4L96.3,114.7z M119.4,137.8c4.5-4.3,4.6-11.3,0.4-15.8c-0.1-0.1-0.2-0.3-0.4-0.4
	l-4-4c-4.2-4.5-11.3-4.6-15.8-0.4c-0.1,0.1-0.3,0.2-0.4,0.4l-25.4,26.5c-4.5,4.2-4.6,11.3-0.4,15.8c0.1,0.1,0.2,0.3,0.4,0.4l4,4
	c4.2,4.5,11.3,4.6,15.8,0.4c0.1-0.1,0.3-0.2,0.4-0.4L119.4,137.8z M308.5,115.3c0.6,1.2,4,6.3,4,6.3c-1.7,8.1-6.9,19-6.9,19
	l-0.6,0.6c-19,7.5-49,13.8-80.7,1.1c-19-7.5-32.9-22.5-38-42.1c-5.7-20.4-1.7-42.4,11-59.4C211,22.4,232.9,12,262.9,10.3
	c11.5-0.6,34.6,2.3,47.3,9.8h1.2c0,0,0.6,31.7,0,32.9l-0.6,1.7l-9.2,0.6l-0.6-3.5c-1.7-9.2-5.8-33.4-39.8-31.7
	c-14.4,0.6-26.5,8.1-35.2,19.6c-11,14.4-13.8,33.4-9.2,55.4c4.6,20.8,20.8,34,32.9,39.2c5.2,1.7,21.3,5.8,33.4,0
	C293.5,129.1,303.9,121,308.5,115.3 M424.9,148.7v-109c0-3.5,0-9.2-3.5-13.3c-0.6-0.6-5.8-4.6-5.8-4.6v-4.6l29.4-5.8l2.9,1.7v117
	c0.6,11,8.1,12.1,8.1,12.1v6.9L424.9,148.7z M554.7,141.2c-5.2-1.2-8.1-5.8-8.1-13.3V58.8l-2.3-1.1l-29.4,5.8V68c0,0,5.2,4,5.8,4.6
	c3.5,4,3.5,9.8,3.5,13.3v41c-9.8,7.5-18.5,9.8-24.8,6.9c-4.6-2.3-7.5-8.1-7.5-16.1V58.8l-2.3-1.2l-29.4,5.8V68c0,0,5.2,4,5.8,4.6
	c4,4,4,9.8,3.5,13.3v35.2c-0.1,4.1,0.3,8.1,1.2,12.1c1.7,7.5,6.3,12.7,12.7,15c10.4,4,25.4,0,40.9-10.4v9.8h32.3v-6.3L554.7,141.2z
	 M701.1,141.2c-5.2-1.2-7.5-5.8-8.1-13.3V85.9c0-9.8-5.2-28.3-24.2-28.3c-14.4,0-23.6,8.6-28.8,13.3c-3.5-8.3-11.8-13.5-20.8-13.3
	c-9.2,0-17.3,3.5-25.4,10.4v-8.6l-2.9-1.7l-29.5,5.8V68c0,0,5.2,4,5.8,4.6c3.5,4,3.5,9.8,3.5,13.3v61.7h32.3v-6.3l-1.7-0.6
	c-5.2-1.1-7.5-5.2-7.5-13.3V77.9c4.8-4,11.1-5.9,17.3-5.2c4.6,0.6,9.8,4,9.8,21.3v53h31.7v-6.3l-1.7-0.6c-5.2-1.1-7.5-5.2-8.1-13.3
	V84.8c0.1-2.3-0.1-4.6-0.6-6.9c5.8-5.2,11.5-5.8,17.3-5.2c4.6,0.6,9.8,4,9.8,21.3v53h31.7L701.1,141.2L701.1,141.2z M414.5,103.2
	c0-13.3-4.6-25.4-12.7-33.4c-8.7-8.6-20.8-13.3-35.8-13.3c-27.7,0-48.4,20.2-48.4,46.7c0,28.3,19,46.7,48.4,46.7
	c13.8,0,26.5-4.6,35.2-13.3C409.9,127.6,414.6,115.6,414.5,103.2 M366.1,139.5c-17.9,0-23.1-13.8-23.1-36.9
	c0-16.7,5.2-36.9,23.1-36.9s23.1,20.2,23.1,36.9C389.2,125.7,384,139.5,366.1,139.5 M809.5,29.4c0.2-6.7,5.8-11.9,12.5-11.8
	c6.4,0.2,11.6,5.3,11.8,11.8c0.2,6.5-5,12-11.5,12.1c-0.2,0-0.4,0-0.6,0C815,41.5,809.6,36.1,809.5,29.4 M810.7,147.6V85.3
	c0-3.5,0-9.2-3.5-13.3c-0.6-0.6-5.8-4.6-5.8-4.6v-4.6l29.4-5.8l2.9,1.7V128c0,7.5,2.9,12.1,7.5,13.3l1.7,0.6v6.4L810.7,147.6z
	 M793.9,79c-6.3-11-14.4-17.9-24.2-20.2c-13.8-3.5-27.7,2.9-36.3,7.5V12.7l-2.9-1.7l-29.4,5.8v4.6c0,0,5.2,4,5.8,4.6
	c3.5,4,3.5,9.2,3.5,13.3v102.1l1.2,0.6c16.7,8.6,38.6,9.8,54.8,3.5c17.9-7.5,26-20.2,28.8-29.4C800.9,101.5,798.6,87.1,793.9,79
	 M769.7,127.4c-5.2,8.6-15.6,13.8-23.6,11.5s-12.7-11-12.7-24.2V77.3c0.4,0,0.9-0.2,1.2-0.6c5.2-2.3,14.4-7.5,26.5-1.1
	c6.8,3.9,11.8,10.3,13.8,17.9C777.8,104.4,776.1,116.5,769.7,127.4 M922.5,138.4l-1.7-0.6c-1.2,0-3.5-3.5-3.5-8.6v-41
	c0-12.1-4-21.3-11-25.9c-6.3-4.6-15-5.2-25.4-1.7c-12.1,4-30,19.6-32.9,23.1l-0.6,0.6v1.1c0,1.1,1.7,2.9,2.3,4l0.6,0.6h20.2v-5.8
	c0-8.1,5.2-12.1,9.8-12.7s7.5-0.6,9.8,1.2c2.9,2.3,4.6,8.1,4.6,17.3v5.2l-42.1,18.5l-0.6,0.6v0.6c-4,11.5-2.9,20.8,2.3,27.1
	c8.7,9.8,30,11,61.1,4c2.3-0.6,7.5-1.1,7.5-1.1C922.5,144.1,922.5,138.3,922.5,138.4 M895.4,104.3v31.7c-6.9,4.6-13.8,5.2-19,1.1
	c-5.2-4.6-6.3-12.7-2.9-20.8L895.4,104.3z"/>
</svg>
