<svg id="Слой_1" data-name="Слой 1" xmlns="http://www.w3.org/2000/svg" viewBox="0 0 539 92.73">
	<defs>
		<style>
			.cls-1{fill:#fff;}
		</style>
	</defs>
	<title>
		demix-logo-hover
	</title>
	<path class="cls-1" d="M-257,58.69c6.81-7.45,13.69-14.83,20.42-22.35,9.09-10.16,18.07-20.42,27.38-31,2.74,3.41,4.16,6.27,1.59,10.34a134,134,0,0,0-10.62,20.43c9.64-6,19.43-11.78,28.83-18.15,3.54-2.41,2.89-6.25.6-9.79q-10.57-16.3-20.89-32.79c-1-1.67-1.31-3.82-1.93-5.74,2.09-.25,4.27-1,6.23-.61a14.47,14.47,0,0,1,6.11,3c15.76,13.05,31.42,26.23,47.1,39.37,4.89,4.09,5.24,8.3.4,12.55a31.75,31.75,0,0,1-9.32,5.51c-25.47,10-51,19.74-76.52,29.55-2.44.94-4.92,1.76-7.38,2.64h-12Z" transform="translate(257 31.04)" />
	<path class="cls-1" d="M282-.31C276.47,3.31,271,7,265.38,10.52c-6.88,4.27-13.9,8.34-21.26,12.74,4.3,6.59,8.38,12.82,12.42,19.07,3.15,4.89,1.83,6.29-4,7.41-13.29,2.57-21.22-3.28-25.67-16-6.38,3.8-12.3,6.78-17.59,10.61-8.41,6.09-17.84,5.44-27.29,5.17-1,0-1.89-1-2.83-1.58.82-1.31,1.32-3.12,2.5-3.85,8.89-5.51,17.91-10.81,26.89-16.18L218.34,22c-4-6.14-7.92-12.06-11.76-18-2.74-4.26-1.79-6.41,3.3-6.82,4-.32,8.14-.73,11.92.17,3.07.72,6.08,2.93,8.4,5.21s4,5.61,6.05,8.73c6.34-3.76,12.13-7.66,18.32-10.78A34.67,34.67,0,0,1,282-1.31Z" transform="translate(257 31.04)" />
	<path class="cls-1" d="M99.94,28.45c6.92-6.86,12.91-12.78,18.87-18.71C121.53,7,124,4,127,1.68c2.55-1.94,5.67-4,8.7-4.27a161.57,161.57,0,0,1,21.45-.22c4.34.19,5.29,2.35,3.3,6.39C153.67,17.25,147,31,139.87,44.46c-1.31,2.46-4.71,4.45-7.54,5.29-3.06.92-6.61.45-9.92.2-4.53-.34-5.41-2-3.38-6.26,3.35-7,6.84-14,10.24-21.06a28.19,28.19,0,0,0,1.09-3.33c-9.14,9-17.77,17.2-26.14,25.69-4.26,4.34-9.24,5.54-15,4.94C85.61,49.55,84,47.79,84,44c.14-8.31,0-16.63,0-26.35a43.85,43.85,0,0,0-2.8,4c-3.73,7.41-7.51,14.81-11,22.31-1.85,3.94-4.65,5.9-9,5.81-3.16-.06-6.32,0-9.49-.08C48,49.63,47,47.48,48.54,44.4c7-14.33,14-28.7,21.54-42.74,1.26-2.33,5.26-4,8.22-4.42,4.89-.73,10-.34,15-.17,5.3.18,6.66,1.72,6.67,7C100,11.73,99.94,19.38,99.94,28.45Z" transform="translate(257 31.04)" />
	<path class="cls-1" d="M-107.28,8.75c2.5-6.16,4.9-11.39,11.52-11.31,19.1.23,38.28-.13,57.26,1.59C-23.12.43-19.15,10-26,23.87c-7.39,14.92-20.19,22.8-35.9,24.39C-79.41,50-97.12,49.69-114.74,50c-5.3.07-6.09-1.76-3.7-6.55,4.21-8.47,8.55-16.87,12.69-25.37,1.23-2.52,2.68-3.77,5.68-3.64,5.81.25,11.63.07,18.43.07L-93.22,37.57c11.38-.78,21.66-.74,31.66-2.41,9-1.49,13.09-9,15.58-17.14,1.14-3.72-.15-6.6-4.33-7.46a33.74,33.74,0,0,0-6.35-1c-13.65-.15-27.3-.13-40.95-.25C-100.58,9.33-103.54,9-107.28,8.75Z" transform="translate(257 31.04)" />
	<path class="cls-1" d="M7,17.69c11.29,0,22.26-.14,33.23.12,2.26.05,4.49,1.63,6.74,2.51-1.35,2.54-2.19,5.63-4.19,7.43-1.6,1.44-4.61,1.73-7,1.78-9.83.18-19.66.07-29.49.07-7.07,0-7.37.26-9.56,8.32H30.23c1.67,0,3.43-.35,5,.08,2.62.74,5.83,1.35,7.42,3.2,1.42,1.66-3.35,7.55-6.46,8.3a24.32,24.32,0,0,1-5.45.58q-27,.06-54,0c-7.52,0-8.43-1.56-5.13-8.12C-22.13,29.49-15.63,17.13-9.67,4.51-7.08-1-3.24-3,2.51-3c18,.09,36-.08,54,.16,2.45,0,4.88,1.82,7.32,2.79C62,2.72,60.57,6,58.12,8.09c-1.62,1.36-4.75,1.21-7.2,1.24-11.33.11-22.68.43-34-.1C10.88,8.94,8.07,11.25,7,17.69Z" transform="translate(257 31.04)" />
	<path class="cls-1" d="M157.67,50.11c-10.42,0-11-.86-6.43-10,5.81-11.76,11.86-23.41,17.29-35.34C171.14-1,175-3.07,181-3c12.64.08,13.09.64,7.57,11.86Q180.66,24.92,172.66,41C168.34,49.68,167.62,50.11,157.67,50.11Z" transform="translate(257 31.04)" />
</svg>
