<svg id="Слой_1" data-name="Слой 1" xmlns="http://www.w3.org/2000/svg" viewBox="0 0 919 102.63"><defs><style>.cls-1{fill:#fff;}</style></defs><title>merrell-logo-hover</title><g id="Слой_2" data-name="Слой 2"><polygon class="cls-1" points="0 100.2 0 0.03 40.01 0.03 71.01 75.3 99.34 0.03 143.34 0.03 143.91 100.2 112.09 100.2 111.84 20.38 82.09 100.2 49.09 100.2 18.84 19.88 18.59 100.2 0 100.2"/><polygon class="cls-1" points="166.68 100.2 166.68 0.03 265.84 0.03 265.84 15.3 197.51 15.3 197.51 40.97 256.01 40.97 256.01 55.47 197.68 55.47 197.68 84.63 265.84 84.63 265.84 100.2 166.68 100.2"/><polygon class="cls-1" points="553.01 100.2 553.01 0.03 652.18 0.03 652.18 15.3 583.84 15.3 583.84 40.97 642.34 40.97 642.34 55.47 584.01 55.47 584.01 84.63 653.34 84.63 653.34 100.2 553.01 100.2"/><polygon class="cls-1" points="671.68 0.03 671.68 100.2 767.68 100.2 767.68 84.97 701.01 84.97 701.01 0.03 671.68 0.03"/><polygon class="cls-1" points="783.01 0.03 783.01 100.2 879.01 100.2 879.01 84.97 812.34 84.97 812.34 0.03 783.01 0.03"/><path class="cls-1" d="M912.34,91.46a6.55,6.55,0,0,0,0-4.15A3.3,3.3,0,0,0,910.53,86h-6.25v11.5h1.53l.62-.5V93.27l1.47-.06L910,97h2.57v-.87L910.78,93A4.24,4.24,0,0,0,912.34,91.46Zm-2.94-.9h-3.06V88.23s2,0,2.84,0a.52.52,0,0,1,.27.07c.38.21.6.49.6,1.35a1,1,0,0,1-.63,1Z" transform="translate(0 0.03)"/><path class="cls-1" d="M908,80.6a11,11,0,1,0,11,11,11,11,0,0,0-11-11Zm.12,19a8.1,8.1,0,1,1,8.1-8.1h0a8.1,8.1,0,0,1-8.1,8Z" transform="translate(0 0.03)"/><path class="cls-1" d="M503.34,60.85s26.21-1,31.18-27.37a16.26,16.26,0,0,0,.26-4C533.34,6.6,506.34,0,506.34,0h-87V100.16h30.75V62.35h21.5l28.25,37.81h35.25ZM490.59,46.6H449.84v-31h39.88c12.43,2.63,14,13.29,14,13.29v4.59C501.34,43.48,490.59,46.6,490.59,46.6Z" transform="translate(0 0.03)"/><path class="cls-1" d="M368.72,60.85s26.2-1,31.17-27.37a15.79,15.79,0,0,0,.27-4C398.71,6.6,371.72,0,371.72,0h-87V100.16h30.75V62.35H337l28.25,37.81h35.25ZM356,46.6H315.22v-31h39.87c12.44,2.63,14,13.29,14,13.29v4.59C366.72,43.48,356,46.6,356,46.6Z" transform="translate(0 0.03)"/></g></svg>