<?xml version="1.0" encoding="utf-8"?>
<svg version="1.1" id="Слой_1" xmlns="http://www.w3.org/2000/svg" xmlns:xlink="http://www.w3.org/1999/xlink" x="0px" y="0px"
	 viewBox="0 0 919 102.6" style="enable-background:new 0 0 919 102.6;" xml:space="preserve">
<style type="text/css">
	
</style>
<title>merrell-logo</title>
<g id="Слой_2_1_">
	<polygon class="st0" points="0,100.2 0,0 40,0 71,75.3 99.3,0 143.3,0 143.9,100.2 112.1,100.2 111.8,20.4 82.1,100.2 49.1,100.2 
		18.8,19.9 18.6,100.2 	"/>
	<polygon class="st0" points="166.7,100.2 166.7,0 265.8,0 265.8,15.3 197.5,15.3 197.5,40.9 256,40.9 256,55.4 197.7,55.4 
		197.7,84.6 265.8,84.6 265.8,100.2 	"/>
	<polygon class="st0" points="553,100.2 553,0 652.2,0 652.2,15.3 583.8,15.3 583.8,40.9 642.3,40.9 642.3,55.4 584,55.4 584,84.6 
		653.3,84.6 653.3,100.2 	"/>
	<polygon class="st0" points="671.7,0 671.7,100.2 767.7,100.2 767.7,84.9 701,84.9 701,0 	"/>
	<polygon class="st0" points="783,0 783,100.2 879,100.2 879,84.9 812.3,84.9 812.3,0 	"/>
	<path class="st0" d="M912.3,91.5c0.5-1.3,0.5-2.8,0-4.1c-0.4-0.6-1.1-1.1-1.8-1.3h-6.3v11.5h1.5l0.6-0.5v-3.7l1.5-0.1L910,97h2.6
		v-0.9l-1.8-3.2C911.4,92.6,912,92.1,912.3,91.5z M909.4,90.6h-3.1v-2.3c0,0,2,0,2.8,0c0.1,0,0.2,0,0.3,0.1c0.4,0.2,0.6,0.5,0.6,1.4
		C910.1,90,909.8,90.4,909.4,90.6L909.4,90.6z"/>
	<path class="st0" d="M908,80.6c-6.1,0-11,4.9-11,11s4.9,11,11,11s11-4.9,11-11S914.1,80.6,908,80.6L908,80.6z M908.1,99.6
		c-4.5,0-8.1-3.6-8.1-8.1s3.6-8.1,8.1-8.1c4.5,0,8.1,3.6,8.1,8.1c0,0,0,0,0,0C916.2,96,912.6,99.5,908.1,99.6L908.1,99.6z"/>
	<path class="st0" d="M503.3,60.9c0,0,26.2-1,31.2-27.4c0.2-1.3,0.3-2.7,0.3-4C533.3,6.6,506.3,0,506.3,0h-87v100.2h30.8V62.4h21.5
		l28.3,37.8h35.3L503.3,60.9z M490.6,46.6h-40.8v-31h39.9c12.4,2.6,14,13.3,14,13.3v4.6C501.3,43.5,490.6,46.6,490.6,46.6z"/>
	<path class="st0" d="M368.7,60.9c0,0,26.2-1,31.2-27.4c0.3-1.3,0.3-2.7,0.3-4C398.7,6.6,371.7,0,371.7,0h-87v100.2h30.8V62.4H337
		l28.3,37.8h35.3L368.7,60.9z M356,46.6h-40.8v-31h39.9c12.4,2.6,14,13.3,14,13.3v4.6C366.7,43.5,356,46.6,356,46.6z"/>
</g>
</svg>
