<svg id="Слой_1" data-name="Слой 1" xmlns="http://www.w3.org/2000/svg" viewBox="0 0 951.79 226.78"><defs><style>.cls-1{fill:#fff;}</style></defs><title>outventure-logo-hover</title><path class="cls-1" d="M625.14-262.91c-34.71-24.48-58.5-76.51-43.07-126.95,15.08-49.28,60.37-84.26,110.93-84.58,53.66-.35,99.64,33.35,114.72,85.26,13.87,47.7-4.41,96.4-40.06,123.31,19.69-22.28,27.89-48.42,25-77.63-2.9-29.63-17-53.4-41.39-70.46-42.11-29.49-96.15-22.75-131.27,16.58C589.51-363.22,584.55-304.27,625.14-262.91Z" transform="translate(-577.27 474.45)"/><path class="cls-1" d="M660.09-247.66c-28.7-13.82-47.62-46.34-40.53-83.78,6.69-35.32,38.72-62.29,76.64-61.5a77.17,77.17,0,0,1,73.69,61.66c7.51,36.79-13.69,70.58-39.07,82.61,34.31-28.15,27.3-71.49,3.51-92.61-22.33-19.83-60.13-21.51-83.92,4.83C630.35-314.24,626.92-273.31,660.09-247.66Z" transform="translate(-577.27 474.45)"/><path class="cls-1" d="M1016.39-381.46c3.93,1.16,7.82,2.5,11.81,3.43,2.83.67,4.22,1.75,4.18,5-.16,13.83-.11,27.66,0,41.49,0,3-.92,4.24-4.06,4a41,41,0,0,0-9.46,0c-4.41.67-5-1.46-5-5.07.1-15.33-.1-30.66.13-46,.06-3.6-1-4.91-4.43-4.62a26.57,26.57,0,0,1-4,0c-3.1-.21-8.44.27-8.85-.93-1.3-3.73-1-8.12-.69-12.22.06-.86,2.59-2.2,4-2.21,13.5-.17,27,0,40.5-.13a160.72,160.72,0,0,0,17.7-.8c5-.6,6.46,1.77,7.6,6.08,4,15.14,8.37,30.17,12.62,45.24.31,1.1.72,2.16,1.61,4.79,1-2.9,1.53-4.44,2-6,4.37-15.2,8.83-30.38,13-45.64.92-3.36,2.3-4.62,5.82-4.38,4.8.32,9.63.08,15.1.08-.4,1.9-.64,3.46-1.07,5-6.12,21.09-12.35,42.15-18.3,63.29-1,3.41-2.46,4.59-5.89,4.35-4-.27-8-.05-12-.07-9.91-.05-14.81-3.66-17.68-13.43-3.52-12-7.15-24-10.09-36.08-1.38-5.67-4-7.39-9.63-7-8.21.53-16.48.13-24.72.13Z" transform="translate(-577.27 474.45)"/><path class="cls-1" d="M1205.17-327.12H1186.9v-71.65c9,0,17.94-.74,26.71.27,5.36.62,8,6.09,9.94,11,4.9,12.73,9.67,25.52,14.5,38.28a7.92,7.92,0,0,0,2.16,3.35V-399h18.71v71.78c-9,0-17.78.75-26.4-.24-6.62-.77-9.25-7.13-11.42-12.78-4-10.4-7.71-20.92-11.56-31.38a45.57,45.57,0,0,0-4.37-9.35Z" transform="translate(-577.27 474.45)"/><path class="cls-1" d="M1403.63-399.42c3.72,0,7.34,0,11,0,11,.13,22,0,32.92.53,9.31.46,14.12,5.56,15,14.88a64.69,64.69,0,0,1,0,8.47c-.26,6.14-2.49,11-10.56,13.41,10.65,2.67,11,10,10.8,17.6-.13,5.63,0,11.27,0,17.3h-19.47c0-5.4,0-10.81,0-16.22,0-8.64-2-10.95-10.46-10.56-4.94.22-8-.76-8.36-6.23a4.15,4.15,0,0,0-2-3.05v36.17h-18.81Zm18.79,30.87c5.69,0,11,.16,16.21-.05,4.39-.18,4.63-3.54,4.55-6.86s.89-7.55-4.28-8a113.12,113.12,0,0,0-13.9-.16c-.9,0-2.39,1.71-2.46,2.71C1422.25-376.95,1422.42-373,1422.42-368.55Z" transform="translate(-577.27 474.45)"/><path class="cls-1" d="M845.72-363.42q0-6,0-12c0-12.81,5.37-20.2,17.88-22.69,10.64-2.12,21.52-2.41,32.14.78,9.66,2.91,15,9.51,15.33,19.7.34,9.65.32,19.33,0,29-.32,10.9-7.45,19.47-18.23,20.46a157.28,157.28,0,0,1-29.75-.19c-10.27-1-17.22-10.07-17.37-20.57C845.66-353.76,845.72-358.59,845.72-363.42Zm46.6.65h.35v-4.49c.06-14.85-.8-15.75-15.48-16.24-.83,0-1.66-.08-2.49-.05-7.45.21-10.09,2.39-10.37,9.75-.29,7.63-.13,15.29.18,22.92.22,5.51,3,7.79,9.11,8.42,11.49,1.18,16.49-.45,18.15-5.94a9,9,0,0,0,.53-2.43C892.35-354.81,892.32-358.79,892.32-362.77Z" transform="translate(-577.27 474.45)"/><path class="cls-1" d="M1372.32-399.1h19.32c0,9.05.11,17.83,0,26.6-.14,9.81.05,19.66-.94,29.39-.92,9.06-6.52,14.88-15.49,15.71a156.1,156.1,0,0,1-28.76,0c-8.07-.75-14.68-5.75-15.21-14.18-1.21-19-1.25-38.12-1.77-57.52h20v5.39c0,14,0,28,0,41.95,0,6.71,1.85,8.48,8.61,8.72,13,.45,14.21-.72,14.21-13.9q0-18.48,0-37Z" transform="translate(-577.27 474.45)"/><path class="cls-1" d="M927.67-398.67c4.81,0,9.78-.27,14.67.22,1.06.11,2.61,3,2.63,4.58.22,13.82.13,27.64.16,41.46,0,7.74,1.86,9.74,9.53,10.22a54.19,54.19,0,0,0,7-.24c5.09-.36,7.21-2.82,7.24-8.74.08-13.81.22-27.64,0-41.45-.09-4.88,1.6-6.27,6.35-6.17,11.88.25,11.87.05,11.85,11.86,0,12.32-.12,24.65,0,37,.13,10.51-3.89,21.38-18.36,22.13a171,171,0,0,1-27.25-.56c-8.19-.88-14.17-8.4-14.41-17.92-.44-16.81-.11-33.63-.07-50.45A7.63,7.63,0,0,1,927.67-398.67Z" transform="translate(-577.27 474.45)"/><path class="cls-1" d="M1140.48-364.61c0,6.27.07,12.54,0,18.81-.06,3.23,1.94,3.31,4.28,3.3,7.82,0,15.65,0,23.47,0h5.71v15.41c-14.63,0-28.91.23-43.17-.13-5.16-.13-9.42-5.23-9.47-10.58q-.24-25.23,0-50.44c0-5.61,3.82-10.44,9.32-10.63,14.07-.46,28.17-.15,42.52-.15v15.25h-19.94c-3,0-6,.14-9,0s-3.85,1.07-3.71,3.82c.15,3,0,5.95,0,9.77,7.14,0,13.9-.09,20.66,0,9.55.16,7.68-1.54,10.23,8.16.37,1.42.59,2.87,1,5.09-9.17,0-17.92.07-26.67-.11-.88,0-2-1.46-2.52-2.49a32.88,32.88,0,0,1-1.51-5.18Z" transform="translate(-577.27 474.45)"/><path class="cls-1" d="M1528.52-342.25c0,4.5-.11,8.32,0,12.12.1,2.76-1.25,3.34-3.66,3.33-12.49-.07-25,.09-37.46-.11a11.86,11.86,0,0,1-12-12.13q-.26-24.21,0-48.44c.07-6.17,4.42-11.41,10.29-11.58,13.78-.39,27.58-.13,41.71-.13v15.44c-9.33,0-18.45.19-27.55-.09-4.09-.12-5.53,1-5.35,5.28.41,9.47-1.19,8.38,8.67,8.36,5.33,0,10.67.27,16,0,3.59-.21,5.15,1.1,5.65,4.55.39,2.74,1.27,5.4,2.1,8.77-9.25,0-17.87.09-26.47-.12-1,0-2.26-1.6-2.75-2.73-.89-2.06-1.3-4.33-3.07-6.39,0,7-.17,14,.19,21,0,1,2.71,2.5,4.19,2.54,8,.26,16,.11,24,.13C1524.61-342.48,1526.24-342.35,1528.52-342.25Z" transform="translate(-577.27 474.45)"/><path class="cls-1" d="M1265.51-382.71V-399h57v16.21h-33.61l-.17,1.32a106.24,106.24,0,0,1,10.64,3.05c1.48.59,3.5,2.43,3.52,3.73.22,15.31.11,30.63.05,45.94a6,6,0,0,1-.59,1.64h-18.6v-5.32c0-15-.14-30,.07-44.95,0-4-.86-5.78-5.2-5.4C1274.45-382.43,1270.27-382.71,1265.51-382.71Z" transform="translate(-577.27 474.45)"/><path class="cls-1" d="M1307.42-275.73c-1,3.08-1.66,6.28-3,9.17-.88,1.9-2.74,3.34-4.16,5-1.51-1.56-3.64-2.88-4.42-4.75a150.32,150.32,0,0,1-5.89-16.91c-.44-1.57.82-3.61,1.3-5.44,1.4,1.28,3.41,2.3,4.09,3.89,1.65,3.87,2.68,8,5.2,12.15.75-1.87,1.56-3.72,2.22-5.62.87-2.5,1.42-5.14,2.5-7.54.54-1.19,2.12-2.86,3-2.72a5.4,5.4,0,0,1,3.45,2.85,81.26,81.26,0,0,1,2.72,8.52c.44,1.34,1,2.63,2.13,5.42,1.31-2.83,2.14-4.29,2.68-5.85,1-3,1.6-6.15,2.92-9,.48-1,2.56-1.31,3.91-1.94.54,1.26,1.83,2.75,1.52,3.73q-3.26,10.2-7.18,20.17c-.5,1.27-2.36,2.77-3.57,2.76s-2.93-1.56-3.5-2.85c-1.58-3.55-2.68-7.32-4-11Z" transform="translate(-577.27 474.45)"/><path class="cls-1" d="M1467.07-273.86c0,1.83,0,3.66,0,5.49-.1,6.57-.11,6.48-6.45,5.5-1.32-.2-2.82.65-4.2,1.1-5.47,1.76-10.92-.47-12.44-5.12-1.69-5.13.87-9.2,7.1-10.92,2-.57,4.32-.4,6.34-1,1.28-.41,2.28-1.7,3.4-2.6-1.18-1-2.35-2.72-3.55-2.75-2,0-4,1.14-6.09,1.56a11.66,11.66,0,0,1-3.2-.21c.21-1.21,0-2.9.7-3.54,3.66-3.25,8-3.65,12.62-2.31,4.16,1.22,5.6,4.39,5.77,8.35C1467.16-278.19,1467.08-276,1467.07-273.86Zm-10.47-2.44-7,6.38c1.71,1.12,3.3,2.89,5.15,3.23,3.49.64,5.92-1.4,6-4.93C1460.76-272.8,1458.71-274,1456.6-276.3Z" transform="translate(-577.27 474.45)"/><path class="cls-1" d="M872.07-273.79c-.14,2.48-.24,4.81-.4,7.14-.27,3.71-1,6.46-5.83,4-1.13-.57-3.11.37-4.65.82-6.34,1.85-11.61-.63-12.55-6.11-.74-4.29.57-7.7,5-9.06,2.83-.87,5.88-1.07,8.7-2,1.11-.35,1.88-1.78,2.8-2.72-1-.91-2-2.57-3-2.56-2,0-4.06,1.11-6.13,1.47a14.17,14.17,0,0,1-3.58-.28c.35-1.28.29-3.11,1.13-3.75,4-3.08,8.6-3.43,13.25-1.77,4.15,1.49,4.94,5,4.91,8.93C871.73-277.63,872-275.64,872.07-273.79Zm-9.17-1c-4.38.86-8.58.35-8.36,5.1.06,1.15,3.17,2.78,5.05,3.07,3.43.52,5.91-1.45,5.93-5C865.53-272.85,863.55-274.07,862.9-274.81Z" transform="translate(-577.27 474.45)"/><path class="cls-1" d="M1178.44-273.72a32.93,32.93,0,0,0-5,.05,20.83,20.83,0,0,0-4,1.38c.84,1.51,1.48,4.12,2.54,4.3,3.06.51,6.28,0,9.43,0,1.88,0,3.75.06,5.63.09-1.12,1.62-1.88,3.93-3.42,4.72-5.31,2.72-10.88,3.15-16-.71s-5.9-9.08-4.81-14.78c1-5.29,4.23-9,9.6-10.31,7.25-1.81,15.29,4,15.49,11.44,0,1.26-1.79,3.24-3.16,3.69C1182.91-273.24,1180.6-273.71,1178.44-273.72Zm-3.34-2,6.35-3.65c-2-1.63-4-4.5-6-4.54s-4.09,2.76-6.13,4.31Z" transform="translate(-577.27 474.45)"/><path class="cls-1" d="M1388.43-273.79a24.21,24.21,0,0,0-5,.08,18.4,18.4,0,0,0-4,1.91c.86,1.31,1.59,3.62,2.59,3.73,3.23.39,6.56-.08,9.86-.12,1.71,0,3.42.16,5.14.25-1,1.53-1.58,3.67-3,4.49-6.4,3.82-14.11,2.75-18.21-2.14-4.42-5.27-4.63-13.62-.34-18.89,3.32-4.07,7.59-5.92,12.81-4.51s8.33,5.26,9.53,10.49c.69,3-.6,4.81-3.92,4.74-1.83,0-3.65,0-5.48,0Zm-3.55-1.93,6.57-3.55c-2-1.67-3.92-4.58-6-4.67s-4.09,2.74-6.14,4.29Z" transform="translate(-577.27 474.45)"/><path class="cls-1" d="M1107.78-272.92c1.32-4.05,2.39-8.2,4.09-12.08.67-1.54,2.75-2.46,4.19-3.66.6,1.8,2.11,3.89,1.64,5.33-2.14,6.43-4.74,12.72-7.44,18.95-.55,1.25-2.33,2.77-3.49,2.72s-2.93-1.58-3.46-2.87c-2.61-6.27-5.07-12.61-7.15-19.07-.44-1.37.9-3.32,1.42-5,1.4,1.08,3.43,1.87,4.07,3.29,1.88,4.13,3.19,8.5,4.73,12.78Z" transform="translate(-577.27 474.45)"/><path class="cls-1" d="M932.1-261.21c-6.77-.1-10.44-3.27-12.76-8s-.57-12.94,3.26-16.69c3.51-3.44,9.54-4.71,13.9-2.43,1.26.65,1.79,2.71,2.66,4.13-1.53.35-3.35,1.41-4.52.92-3.6-1.48-6.41-.46-8.39,2.3a9.35,9.35,0,0,0,0,11.25c2,2.85,4.81,3.71,8.38,2.38,1.19-.45,3,.63,4.45,1-.9,1.39-1.51,3.23-2.78,4.05C934.86-261.4,932.84-261.39,932.1-261.21Z" transform="translate(-577.27 474.45)"/><path class="cls-1" d="M990.92-299.1c1.36,2.58,2.45,3.82,2.63,5.18.34,2.57.24,5,3.75,5.45.73.1,1.62,1.53,1.8,2.47.1.52-1,1.76-1.75,1.88-3.22.56-3.18,2.85-3.2,5.27,0,4.32.08,8.66-.4,12.94-.16,1.37-2,2.56-3,3.84-.93-1.34-2.51-2.62-2.66-4.05-.41-3.78-.21-7.63-.25-11.46,0-2.83.37-5.81-3.49-6.8-.22-.05-.13-3.75.41-3.92,3.07-1,3.44-3,3.47-5.81C988.19-295.37,989.49-296.61,990.92-299.1Z" transform="translate(-577.27 474.45)"/><path class="cls-1" d="M1517.83-287.92c2.88-.27,5.76-.7,8.64-.71a3.3,3.3,0,0,1,2.53,1.77c.27.77-.37,2.65-1,2.82-8.25,2.42-7.63,9-7.38,15.37.06,1.32.3,2.83-.22,3.93s-1.89,2.56-2.88,2.55-2.83-1.59-2.86-2.53c-.21-7.13-.19-14.28.06-21.41,0-1.06,1.61-2.07,2.47-3.1Z" transform="translate(-577.27 474.45)"/><path class="cls-1" d="M1043.67-275.27a86.61,86.61,0,0,1,.13-9.94c.15-1.24,1.77-2.31,2.72-3.46,1,1.09,2.83,2.14,2.88,3.27q.4,10.18,0,20.4c-.05,1.11-2,2.15-3,3.23-.91-1.18-2.46-2.29-2.6-3.56A86.62,86.62,0,0,1,1043.67-275.27Z" transform="translate(-577.27 474.45)"/><path class="cls-1" d="M1046.54-301.87c1.61,2,3.48,3.37,3.38,4.53s-2.1,3.19-3.26,3.18a4.66,4.66,0,0,1-3.49-3C1043-298.34,1044.92-299.75,1046.54-301.87Z" transform="translate(-577.27 474.45)"/></svg>