<svg id="Слой_1" data-name="Слой 1" xmlns="http://www.w3.org/2000/svg" viewBox="0 0 965.22 597.17">
	<defs>
		<style>
			.cls-1{fill:#fff;}
		</style>
	</defs>
	<title>
		salomon-logo-hover
	</title>
	<path class="cls-1" d="M481.06.11c57.82,0,115.66-.35,173.48.18a39,39,0,0,1,38.54,36.13c.24,3.32.11,6.66.11,10v332c0,26.57-15.62,42.39-42.14,42.44q-77,.13-154,0H309.58c-14.79,0-27-5.21-35.19-18.07-4.55-7.11-6.14-15-6.14-23.34V41c0-11.87,3.81-22.41,13-30.22C289,4.18,298,.11,308.51.11Q394.82.16,481.06.11Zm-.54,359.65a1206.21,1206.21,0,0,0,128.75-6.47C620.76,352.11,627,346,627,334.58c.09-23.16.18-46.33,0-69.5-.13-14.1-6.35-25-18.79-31.94q-40.34-22.51-80.77-44.88-45.61-25.38-91.2-50.81c-4.35-2.43-7.92-5.57-9-10.71-2.29-10.66,3.71-18.11,15.19-18.21,22.49-.2,45-.42,67.48.15,5.9.14,12.11,2.33,17.51,5,10.76,5.24,21,11.45,31.56,17.21a42.91,42.91,0,0,0,22,5.64c11.33-.26,22.66,0,34,0,9.95,0,12.12-2.31,12.13-12.5V88.53c0-12.81-5.43-19.45-18.28-20.26C578.23,66.35,547.61,65,517,63.44c-54.7-2.83-109.25-.49-163.7,4.76-13.21,1.27-18.21,6.89-18.22,20.13,0,21.5.45,43-.18,64.49-.5,17.23,6.45,29.13,21.46,37.38q68.07,37.5,135.82,75.42c11.5,6.39,23,12.76,34.41,19.33,7.08,4.08,9.46,9.65,7.88,17.19-1.49,7.16-5.1,10.06-13.93,11.06a50.08,50.08,0,0,1-6,.24c-17,0-34-.38-51,.11-12.87.37-24.65-1.8-35.69-8.84a278.57,278.57,0,0,0-26.29-14.35c-4.41-2.17-9.34-4.29-14.13-4.51-14.63-.69-29.3-.62-44-.48-6.23.07-8.34,2.55-8.38,8.75-.09,14.17-.13,28.33,0,42.5.09,9.2,5.7,15.56,14.76,16.57,10.91,1.22,21.85,2.46,32.82,2.94,32.62,1.35,65.25,2.42,97.88,3.63Z" transform="translate(0.05 0)" />
	<path class="cls-1" d="M607.58,592H580.09c-.1-2.11-.26-4.2-.29-6.29-.31-20.81-.48-41.62-1-62.43a33.66,33.66,0,0,0-2.62-11.09c-2.66-6.78-8.14-10.91-15.21-11.34a175,175,0,0,0-25.9.54c-8.2.74-13.8,5.94-14.81,14-1.52,12.18-2.18,24.5-2.57,36.78-.42,13.14-.1,26.3-.1,40.13-8.72,0-17.12.07-25.52-.13-.69,0-1.93-1.86-1.92-2.86.22-25.61-2.16-51.3,1.54-76.81,3.34-23.11,13.37-33.39,36.31-37.43,15.73-2.78,31.53-3,47,1.41,5.55,1.57,10.66,4.61,16.09,6.66,1.61.6,4.16.85,5.37,0a50.32,50.32,0,0,1,29.62-9.25c13.08,0,26.35.57,39.19,2.83,17.88,3.14,28.86,15.84,29.79,34,1.34,26.26,1.62,52.57,2.33,78.86a21.69,21.69,0,0,1-.32,2.66h-27c-.09-1.82-.26-3.57-.27-5.33-.14-18.66-.14-37.32-.45-56a71.72,71.72,0,0,0-1.75-13.84c-2.13-9.94-7.09-14.9-17.18-16a119,119,0,0,0-23.42-.22c-11.57,1.09-18.58,9.81-18.8,22.58-.35,20.81-.44,41.63-.63,62.44C607.56,587.85,607.58,589.85,607.58,592Z" transform="translate(0.05 0)" />
	<path class="cls-1" d="M145.84,504.35c0-7.68-.13-15,.15-22.23,0-1.11,1.85-2.85,3.11-3.13,27.31-6.18,54.72-10.21,82.4-2.09,15.32,4.5,24.11,14.36,24.7,30.16.69,18.62.64,37.31-.22,55.92-.68,14.63-10.55,23.28-23.6,27.34-25,7.74-50.35,7.56-75.3.1-24.5-7.33-25.57-30.07-19.87-45.07,3.12-8.22,10.4-12.82,18.38-14.93,13.64-3.61,27.56-6.16,41.39-9,6-1.24,12.12-2.1,18.19-3.13.49-.08,1-.11,1.48-.23,6.38-1.67,10.83-5.75,10.35-9.94-.7-6.12-5.89-7.3-10.53-8.3-14.55-3.14-29.17-1.75-43.72.22C163.89,501.23,155.08,502.85,145.84,504.35ZM230.12,539c-21,4.38-40.57,8.29-60,12.6-6,1.33-7.73,8.72-3.31,13.07a12.61,12.61,0,0,0,5.94,3.43c14.86,3.09,29.74,3.55,44.47-.85,5.79-1.73,10.34-5.22,11.52-11.32,1-5.28.91-10.77,1.38-16.93Z" transform="translate(0.05 0)" />
	<path class="cls-1" d="M120,504.15c-9-1.76-17.55-4-26.23-5-17.71-2.13-35.52-3.34-53.17.58-2.75.61-5.91,2-7.64,4.07C28.55,509,31.51,516,38.62,517.33,52.36,519.84,66.18,522,80,524.26c7.88,1.33,15.81,2.47,23.61,4.17,13.87,3,20.59,10.14,22.58,23.87s-1.16,25.55-13.43,33.55c-8.32,5.4-17.8,7.47-27.46,8.34a244.28,244.28,0,0,1-74.49-4.54c-4.79-1-6.76-3-6.43-8,.43-6.41.11-12.88.11-19.63,9.38,2,18.07,4.14,26.86,5.66,18.34,3.16,36.77,3.94,55.18.67a12.21,12.21,0,0,0,6-3c5.28-5.15,3.64-11.52-3.54-13-10.57-2.24-21.26-3.94-31.92-5.71-8.69-1.45-17.52-2.22-26.12-4.09C18.68,539.89,7.52,535,2.49,522.27-4.74,504,4,485.81,22.49,479.44c20.49-7,41.6-6.91,62.75-5.36,9.93.73,19.76,2.8,29.64,4.15,3.88.54,5.31,2.53,5.16,6.43C119.83,491.06,120,497.55,120,504.15Z" transform="translate(0.05 0)" />
	<path class="cls-1" d="M708.18,532.74c.92-7.83,1.5-17.67,3.36-27.27,2.91-15.1,12.34-24.85,27.2-28.78,21.18-5.6,42.51-5.24,63.73-.16,15.63,3.74,24.23,14.35,27.59,29.59a135.15,135.15,0,0,1,.55,56c-3.7,18.6-15.3,30-34.22,32.77-17,2.47-34.18,2.81-51.21-.3-21.46-3.93-32.23-15.36-34.91-37C709.33,550,709,542.36,708.18,532.74Zm63.42,37.92v-.73c3.83,0,7.68.29,11.47,0,11.35-1,19.11-6.8,20.08-17.32a188.21,188.21,0,0,0-.17-35.76c-1-10.06-7.74-15.59-17.92-16.28a251.39,251.39,0,0,0-27.86-.11c-9.71.43-16.54,6.36-18.81,15.69a78.65,78.65,0,0,0,0,37.54c2.13,8.87,8,14.09,16.86,15.48C760.63,570,766.14,570.18,771.6,570.66Z" transform="translate(0.05 0)" />
	<path class="cls-1" d="M355.21,535.85c.72-8.57,1-16.41,2.12-24.12,3.31-22,13.07-32.05,34.88-36.51a128.52,128.52,0,0,1,55.92,1.06c16.29,3.85,26,14.21,29.19,30.49a142.37,142.37,0,0,1-.42,58c-3.24,15-12.44,24.79-27.46,28.51a130.73,130.73,0,0,1-61.31.48c-17.22-3.92-27.26-14.64-30.14-31.82C356.51,553.09,356.06,544.1,355.21,535.85Zm61-36.08c-4.17.21-7.83.31-11.47.61-10.9.89-17.24,6.37-19.78,17.13a79.62,79.62,0,0,0-.26,34.15c2.14,10.72,7.86,16.45,18.86,17.61a162,162,0,0,0,27.86.29c8.74-.61,15.55-5.18,18.1-14.08a71.41,71.41,0,0,0-.31-41.78c-2.5-7.94-8.43-12.24-16.57-13.12-5.58-.61-11.25-.58-16.4-.81Z" transform="translate(0.05 0)" />
	<path class="cls-1" d="M964.67,592.12c-8.14,0-16.12-.08-24.09,0-3.72.06-3.29-2.37-3.29-4.71,0-17.32.25-34.65-.11-52a95.14,95.14,0,0,0-2.63-21.19c-2.11-8.38-8.38-13.24-17-13.73a211.41,211.41,0,0,0-26.4,0c-11.83.83-19.19,8.43-19.71,20.54-.78,18.13-.89,36.29-1.23,54.43-.1,5.31,0,10.61,0,16.31H843c-.14-1.53-.43-3.14-.42-4.74.18-22.32.09-44.64.72-66.94.33-11.92,2.58-23.54,11.18-32.85a37.13,37.13,0,0,1,18.77-10.81,123.6,123.6,0,0,1,60.31-.2C951.33,480.6,962,491.88,963,510.14c1.5,26.75,1.54,53.58,2.19,80.38A8,8,0,0,1,964.67,592.12Z" transform="translate(0.05 0)" />
	<path class="cls-1" d="M349.41,569.31c1.19,7.19,2.44,14.69,3.76,22.65-19.66,1.39-38.89,3.67-57.85-2-17.27-5.14-26.52-16.23-26.91-34.15-.57-26.47-.2-53-.21-79.44a11.53,11.53,0,0,1,.52-2c8,0,16.09-.08,24.19.11.84,0,2.16,1.43,2.36,2.39a31,31,0,0,1,.38,6.46q0,31.73,0,63.46c0,15,6.72,22.13,21.76,22.49C327.81,569.51,338.27,569.31,349.41,569.31Z" transform="translate(0.05 0)" />
</svg>
