<?xml version="1.0" encoding="utf-8"?>
<!-- Generator: Adobe Illustrator 22.0.1, SVG Export Plug-In . SVG Version: 6.00 Build 0)  -->
<svg version="1.1" id="Слой_1" xmlns="http://www.w3.org/2000/svg" xmlns:xlink="http://www.w3.org/1999/xlink" x="0px" y="0px"
	 viewBox="0 0 965.2 597.2" style="enable-background:new 0 0 965.2 597.2;" xml:space="preserve">
<style type="text/css">
	
</style>
<title>salomon-logo</title>
<g>
	<path class="st0" d="M481.1,0.1c57.8,0,115.7-0.3,173.5,0.2c20.3,0.2,37,15.9,38.5,36.1c0.2,3.3,0.1,6.7,0.1,10
		c0,110.7,0,221.3,0,332c0,26.6-15.6,42.4-42.1,42.4c-51.3,0.1-102.7,0.1-154,0c-62.5,0-125,0-187.5,0c-14.8,0-27-5.2-35.2-18.1
		c-4.6-7.1-6.1-15-6.1-23.3c0-112.8,0-225.6,0-338.5c0-11.9,3.8-22.4,13-30.2C289,4.2,298,0.1,308.5,0.1
		C366,0.1,423.6,0.1,481.1,0.1z M480.5,359.8c43,0.1,86-2,128.8-6.5c11.5-1.2,17.7-7.3,17.7-18.7c0.1-23.2,0.2-46.3,0-69.5
		c-0.1-14.1-6.3-25-18.8-31.9c-26.9-15-53.8-30-80.8-44.9c-30.4-16.9-60.8-33.9-91.2-50.8c-4.3-2.4-7.9-5.6-9-10.7
		c-2.3-10.7,3.7-18.1,15.2-18.2c22.5-0.2,45-0.4,67.5,0.2c5.9,0.1,12.1,2.3,17.5,5c10.8,5.2,21,11.5,31.6,17.2
		c6.7,3.8,14.3,5.8,22,5.6c11.3-0.3,22.7,0,34,0c9.9,0,12.1-2.3,12.1-12.5c0-11.8,0-23.7,0-35.5c0-12.8-5.4-19.5-18.3-20.3
		c-30.6-1.9-61.2-3.3-91.8-4.8c-54.7-2.8-109.3-0.5-163.7,4.8c-13.2,1.3-18.2,6.9-18.2,20.1c0,21.5,0.4,43-0.2,64.5
		c-0.5,17.2,6.4,29.1,21.5,37.4c45.4,25,90.6,50.2,135.8,75.4c11.5,6.4,23,12.8,34.4,19.3c7.1,4.1,9.5,9.7,7.9,17.2
		c-1.5,7.2-5.1,10.1-13.9,11.1c-2,0.2-4,0.3-6,0.2c-17,0-34-0.4-51,0.1c-12.9,0.4-24.7-1.8-35.7-8.8c-8.5-5.3-17.3-10-26.3-14.3
		c-4.4-2.2-9.3-4.3-14.1-4.5c-14.6-0.7-29.3-0.6-44-0.5c-6.2,0.1-8.3,2.5-8.4,8.8c-0.1,14.2-0.1,28.3,0,42.5
		c0.1,9.2,5.7,15.6,14.8,16.6c10.9,1.2,21.8,2.5,32.8,2.9C415.3,357.5,447.9,358.6,480.5,359.8L480.5,359.8z"/>
	<path class="st0" d="M607.6,592h-27.5c-0.1-2.1-0.3-4.2-0.3-6.3c-0.3-20.8-0.5-41.6-1-62.4c-0.2-3.8-1.1-7.6-2.6-11.1
		c-2.7-6.8-8.1-10.9-15.2-11.3c-8.6-0.5-17.3-0.3-25.9,0.5c-8.2,0.7-13.8,5.9-14.8,14c-1.5,12.2-2.2,24.5-2.6,36.8
		c-0.4,13.1-0.1,26.3-0.1,40.1c-8.7,0-17.1,0.1-25.5-0.1c-0.7,0-1.9-1.9-1.9-2.9c0.2-25.6-2.2-51.3,1.5-76.8
		c3.3-23.1,13.4-33.4,36.3-37.4c15.7-2.8,31.5-3,47,1.4c5.6,1.6,10.7,4.6,16.1,6.7c1.6,0.6,4.2,0.8,5.4,0c8.7-6.1,19-9.4,29.6-9.3
		c13.1,0,26.3,0.6,39.2,2.8c17.9,3.1,28.9,15.8,29.8,34c1.3,26.3,1.6,52.6,2.3,78.9c0,0.9-0.2,1.8-0.3,2.7h-27
		c-0.1-1.8-0.3-3.6-0.3-5.3c-0.1-18.7-0.1-37.3-0.4-56c-0.1-4.7-0.7-9.3-1.8-13.8c-2.1-9.9-7.1-14.9-17.2-16
		c-7.8-0.8-15.6-0.9-23.4-0.2c-11.6,1.1-18.6,9.8-18.8,22.6c-0.3,20.8-0.4,41.6-0.6,62.4C607.6,587.8,607.6,589.8,607.6,592z"/>
	<path class="st0" d="M145.8,504.4c0-7.7-0.1-15,0.1-22.2c0-1.1,1.9-2.8,3.1-3.1c27.3-6.2,54.7-10.2,82.4-2.1
		c15.3,4.5,24.1,14.4,24.7,30.2c0.7,18.6,0.6,37.3-0.2,55.9c-0.7,14.6-10.6,23.3-23.6,27.3c-25,7.7-50.4,7.6-75.3,0.1
		c-24.5-7.3-25.6-30.1-19.9-45.1c3.1-8.2,10.4-12.8,18.4-14.9c13.6-3.6,27.6-6.2,41.4-9c6-1.2,12.1-2.1,18.2-3.1
		c0.5-0.1,1-0.1,1.5-0.2c6.4-1.7,10.8-5.8,10.4-9.9c-0.7-6.1-5.9-7.3-10.5-8.3c-14.6-3.1-29.2-1.8-43.7,0.2
		C163.9,501.2,155.1,502.9,145.8,504.4z M230.1,539c-21,4.4-40.6,8.3-60,12.6c-6,1.3-7.7,8.7-3.3,13.1c1.6,1.7,3.7,2.9,5.9,3.4
		c14.9,3.1,29.7,3.6,44.5-0.8c5.8-1.7,10.3-5.2,11.5-11.3C229.7,550.7,229.6,545.2,230.1,539L230.1,539z"/>
	<path class="st0" d="M120,504.2c-9-1.8-17.6-4-26.2-5c-17.7-2.1-35.5-3.3-53.2,0.6c-2.8,0.6-5.9,2-7.6,4.1
		c-4.4,5.2-1.4,12.2,5.7,13.5c13.7,2.5,27.6,4.6,41.3,6.9c7.9,1.3,15.8,2.5,23.6,4.2c13.9,3,20.6,10.1,22.6,23.9
		s-1.2,25.5-13.4,33.5c-8.3,5.4-17.8,7.5-27.5,8.3c-24.9,2.3-50,0.8-74.5-4.5c-4.8-1-6.8-3-6.4-8c0.4-6.4,0.1-12.9,0.1-19.6
		c9.4,2,18.1,4.1,26.9,5.7c18.3,3.2,36.8,3.9,55.2,0.7c2.2-0.4,4.3-1.5,6-3c5.3-5.2,3.6-11.5-3.5-13c-10.6-2.2-21.3-3.9-31.9-5.7
		c-8.7-1.4-17.5-2.2-26.1-4.1c-12.2-2.7-23.4-7.5-28.4-20.3c-7.2-18.3,1.5-36.5,20-42.8c20.5-7,41.6-6.9,62.8-5.4
		c9.9,0.7,19.8,2.8,29.6,4.2c3.9,0.5,5.3,2.5,5.2,6.4C119.8,491.1,120,497.5,120,504.2z"/>
	<path class="st0" d="M708.2,532.7c0.9-7.8,1.5-17.7,3.4-27.3c2.9-15.1,12.3-24.8,27.2-28.8c21.2-5.6,42.5-5.2,63.7-0.2
		c15.6,3.7,24.2,14.3,27.6,29.6c4.1,18.4,4.3,37.5,0.6,56c-3.7,18.6-15.3,30-34.2,32.8c-17,2.5-34.2,2.8-51.2-0.3
		c-21.5-3.9-32.2-15.4-34.9-37C709.3,550,709,542.4,708.2,532.7z M771.6,570.7v-0.7c3.8,0,7.7,0.3,11.5,0c11.3-1,19.1-6.8,20.1-17.3
		c1.1-11.9,1-23.9-0.2-35.8c-1-10.1-7.7-15.6-17.9-16.3c-9.3-0.6-18.6-0.6-27.9-0.1c-9.7,0.4-16.5,6.4-18.8,15.7
		c-3,12.3-3,25.2,0,37.5c2.1,8.9,7.9,14.1,16.9,15.5C760.6,570,766.1,570.2,771.6,570.7z"/>
	<path class="st0" d="M355.2,535.8c0.7-8.6,1-16.4,2.1-24.1c3.3-22,13.1-32.1,34.9-36.5c18.5-3.8,37.6-3.4,55.9,1.1
		c16.3,3.8,26,14.2,29.2,30.5c3.8,19.2,3.7,38.9-0.4,58c-3.2,15-12.4,24.8-27.5,28.5c-20.1,5-41.1,5.2-61.3,0.5
		c-17.2-3.9-27.3-14.6-30.1-31.8C356.5,553.1,356.1,544.1,355.2,535.8z M416.2,499.8c-4.2,0.2-7.8,0.3-11.5,0.6
		c-10.9,0.9-17.2,6.4-19.8,17.1c-2.6,11.2-2.6,22.9-0.3,34.2c2.1,10.7,7.9,16.4,18.9,17.6c9.3,0.9,18.6,1,27.9,0.3
		c8.7-0.6,15.6-5.2,18.1-14.1c4.1-13.6,4-28.2-0.3-41.8c-2.5-7.9-8.4-12.2-16.6-13.1C427.1,500,421.4,500,416.2,499.8L416.2,499.8z"
		/>
	<path class="st0" d="M964.7,592.1c-8.1,0-16.1-0.1-24.1,0c-3.7,0.1-3.3-2.4-3.3-4.7c0-17.3,0.3-34.7-0.1-52
		c-0.1-7.1-1-14.2-2.6-21.2c-2.1-8.4-8.4-13.2-17-13.7c-8.8-0.6-17.6-0.5-26.4,0c-11.8,0.8-19.2,8.4-19.7,20.5
		c-0.8,18.1-0.9,36.3-1.2,54.4c-0.1,5.3,0,10.6,0,16.3H843c-0.1-1.5-0.4-3.1-0.4-4.7c0.2-22.3,0.1-44.6,0.7-66.9
		c0.3-11.9,2.6-23.5,11.2-32.8c5-5.4,11.6-9.2,18.8-10.8c19.8-5,40.5-5.1,60.3-0.2c17.8,4.4,28.4,15.7,29.4,33.9
		c1.5,26.7,1.5,53.6,2.2,80.4C965.1,591.1,964.9,591.6,964.7,592.1z"/>
	<path class="st0" d="M349.4,569.3c1.2,7.2,2.4,14.7,3.8,22.7c-19.7,1.4-38.9,3.7-57.8-2c-17.3-5.1-26.5-16.2-26.9-34.2
		c-0.6-26.5-0.2-53-0.2-79.4c0.1-0.7,0.3-1.4,0.5-2c8,0,16.1-0.1,24.2,0.1c0.8,0,2.2,1.4,2.4,2.4c0.3,2.1,0.5,4.3,0.4,6.5
		c0,21.1,0,42.3-0.1,63.5c0,15,6.7,22.1,21.8,22.5C327.8,569.5,338.3,569.3,349.4,569.3z"/>
</g>
</svg>
