<svg id="Слой_1" data-name="Слой 1" xmlns="http://www.w3.org/2000/svg" viewBox="0 0 165 35"><defs><style>.cls-1{fill:#fff;}</style></defs><title>stern-logo-hover</title><path class="cls-1" d="M36,13.48l-13.46-.06L21.09,0,13.82,13.35,0,13.27l9.08,8.37L1.93,35l13.44-8.5,9.43,8.4L23.46,21.4Zm-26.83,14,3.46-6.6L7.17,16.06l19.56.12Z" transform="translate(0 0)"/><path class="cls-1" d="M157,33c-3.1,0-5-.86-6.12-2.69l-7.1-10.63L139.21,33H133l6.67-20h1.4c2.58,0,4.51.37,6,2.58l7.2,10.88L158.77,13H165l-6.67,20H157ZM33,33l1.37-4.19H48.8a4.69,4.69,0,0,0,2.38-.5,1.53,1.53,0,0,0,.7-.86.64.64,0,0,0-.13-.5,2.17,2.17,0,0,0-1.19-.66l-9.4-2.68a5.93,5.93,0,0,1-3.78-2.7,3.31,3.31,0,0,1-.16-2.7,7.12,7.12,0,0,1,3-3.5A9.82,9.82,0,0,1,45.85,13H60L58.64,17.2h-13c-.4,0-1.58,0-2,.48a1.26,1.26,0,0,0-.3,1.1,1.46,1.46,0,0,0,.9.78l.48.18,9.38,2.68a5.83,5.83,0,0,1,3.7,2.6A3.45,3.45,0,0,1,58,27.78a5.53,5.53,0,0,1-3,3.6A14.47,14.47,0,0,1,48.31,33ZM62.3,13,61,17.14h8.26L64.18,33h6l5.08-15.86h7.4L84,13Zm44.45,14.76,20.74-8c2.4-.92,2-2.66.52-2.66H115.63l-1.45,4.34-6.08,2.32L111.67,13l17.86,0A4.81,4.81,0,0,1,133,14.18,3.72,3.72,0,0,1,134,17c-.08,2.53-2.07,5.26-4.85,6.66-.28.14-.7.33-1.15.51l4.35,8.63H126.1l-3.36-6.67L105,33Zm1.91-10.6L110,13H88.08s-4.74,14.77-4.74,14.83c-1.14,3.4.75,5.17,3.45,5.17h16.8l1.34-4.16H91a1.71,1.71,0,0,1-1.32-.43,1.52,1.52,0,0,1,0-1.35l.75-2.18h12.4l1.25-3.8H91.61l1.33-3.93Z" transform="translate(0 0)"/></svg>