<?xml version="1.0" encoding="utf-8"?>
<!-- Generator: Adobe Illustrator 22.0.1, SVG Export Plug-In . SVG Version: 6.00 Build 0)  -->
<svg version="1.1" id="Слой_1" xmlns="http://www.w3.org/2000/svg" xmlns:xlink="http://www.w3.org/1999/xlink" x="0px" y="0px"
	 viewBox="0 0 165 35" style="enable-background:new 0 0 165 35;" xml:space="preserve">
<style type="text/css">
	
</style>
<g>
	<path class="st0" d="M36,13.5l-13.5-0.1L21.1,0l-7.3,13.4L0,13.3l9.1,8.4L1.9,35l13.4-8.5l9.4,8.4l-1.3-13.5L36,13.5z M9.2,27.4
		l3.5-6.6l-5.5-4.8l19.6,0.1L9.2,27.4z"/>
	<path class="st0" d="M157,33c-3.1,0-4.9-0.9-6.1-2.7l-7.1-10.6L139.2,33H133l6.7-20h1.4c2.6,0,4.5,0.4,6,2.6l7.2,10.9l4.5-13.5h6.2
		l-6.7,20H157L157,33z M33,33l1.4-4.2h14.4c0.8,0,1.6-0.1,2.4-0.5c0.3-0.2,0.6-0.5,0.7-0.9c0-0.2,0-0.4-0.1-0.5
		c-0.3-0.3-0.7-0.6-1.2-0.7l-9.4-2.7c-1.8-0.5-3.2-1.5-3.8-2.7c-0.4-0.8-0.5-1.8-0.2-2.7c0.6-1.5,1.6-2.7,3-3.5
		c1.7-1.1,3.7-1.7,5.7-1.7H60l-1.4,4.2h-13c-0.4,0-1.6,0-2,0.5c-0.3,0.3-0.4,0.7-0.3,1.1c0.2,0.4,0.5,0.7,0.9,0.8l0.5,0.2l9.4,2.7
		c1.8,0.5,3.1,1.5,3.7,2.6c0.4,0.9,0.5,1.9,0.2,2.8c-0.4,1.6-1.5,2.9-3,3.6c-2.1,1.1-4.4,1.6-6.7,1.6H33z M62.3,13L61,17.1h8.3
		L64.2,33h6l5.1-15.9h7.4L84,13H62.3z M106.8,27.8l20.7-7.9c2.4-0.9,2-2.7,0.5-2.7h-12.4l-1.4,4.3l-6.1,2.3l3.6-10.8l17.9,0
		c1.3-0.1,2.5,0.4,3.4,1.2c0.7,0.8,1.1,1.8,1,2.8c-0.1,2.5-2.1,5.3-4.9,6.7c-0.3,0.1-0.7,0.3-1.2,0.5l4.3,8.6h-6.2l-3.4-6.7L105,33
		L106.8,27.8z M108.7,17.2L110,13H88.1c0,0-4.7,14.8-4.7,14.8c-1.1,3.4,0.8,5.2,3.4,5.2h16.8l1.3-4.2H91c-0.4,0-1.1-0.1-1.3-0.4
		c-0.3-0.4-0.2-0.9,0-1.4l0.8-2.2h12.4l1.3-3.8H91.6l1.3-3.9C92.9,17.2,108.7,17.2,108.7,17.2z"/>
</g>
</svg>
