<svg width="588" height="498" viewBox="0 0 588 498" fill="none" xmlns="http://www.w3.org/2000/svg">
<rect x="103.514" y="1.16357" width="483.684" height="286.357" rx="15.5" fill="#7D7B7E" stroke="url(#paint0_linear_7_4687)"/>
<circle cx="521.716" cy="239.305" r="33.9156" fill="#FFAB02"/>
<circle cx="477.318" cy="239.305" r="33.9156" fill="#FF0517" fill-opacity="0.65"/>
<path d="M530.966 125.226H149.879V153.592H530.966V125.226Z" fill="#626263"/>
<path d="M382.971 164.692H286.774V193.057H382.971V164.692Z" fill="#626263"/>
<path d="M323.773 238.689H156.045V267.055H323.773V238.689Z" fill="#626263"/>
<path d="M223.276 51.2284H164.045C159.627 51.2284 156.045 54.8101 156.045 59.2284V95.0267C156.045 99.4449 159.627 103.027 164.045 103.027H223.276C227.694 103.027 231.276 99.4449 231.276 95.0267V59.2284C231.276 54.8101 227.694 51.2284 223.276 51.2284Z" fill="#626263"/>
<path d="M231.276 74.0443H210.227C208.57 74.0443 207.227 75.3874 207.227 77.0443V88.5355M207.227 103.027V88.5355M207.227 88.5355H231.276M176.395 51.2284V66.6445M176.395 103.027V86.3772M176.395 66.6445H156.662M176.395 66.6445V86.3772M176.395 86.3772H156.662M184.411 57.3948H199.211" stroke="#505050"/>
<path d="M171.938 343.964C160.437 344.586 136.321 338.784 125.7 335.805C139.067 322.439 156.137 297.856 163.001 287.236H230.22C234.754 291.381 247.317 301.612 261.305 309.383C278.789 319.097 295.108 327.645 282.286 352.513C272.029 372.406 235.79 366.5 218.953 361.061C206.778 355.362 180.331 343.964 171.938 343.964Z" fill="#EED1B8"/>
<path d="M53.43 240.221C58.4035 242.708 70.0082 244.625 75.1889 245.273C78.2973 239.988 95.1344 227.788 103.164 222.348V176.888C97.2067 176.888 83.8924 175.8 78.2973 171.448C50.0108 156.839 13.1503 160.957 -1.74414 164.843V272.083C16.9063 269.907 37.629 249.935 45.659 240.221H53.43Z" fill="#EED1B8"/>
<path d="M53.43 240.221C58.4035 242.708 70.0082 244.625 75.1889 245.273C78.2973 239.988 95.1344 227.788 103.164 222.348V176.888C97.2067 176.888 83.8924 175.8 78.2973 171.448C50.0108 156.839 13.1503 160.957 -1.74414 164.843V272.083C16.9063 269.907 37.629 249.935 45.659 240.221H53.43ZM53.43 240.221C47.2132 237.113 37.1109 185.436 30.8941 176.888M125.7 335.805C136.321 338.784 160.437 344.586 171.938 343.964C180.331 343.964 206.778 355.362 218.953 361.061C235.79 366.5 272.029 372.406 282.286 352.513C295.108 327.645 278.789 319.097 261.305 309.383C247.317 301.612 234.754 291.381 230.22 287.236H163.001C156.137 297.856 139.067 322.439 125.7 335.805Z" stroke="#FF8219" stroke-linecap="round" stroke-linejoin="round"/>
<path d="M-1.35571 328.034L-2.13281 272.082C16.8284 270.217 37.6288 250.324 45.6589 240.61C46.9541 240.221 50.2438 239.677 53.0413 240.61C55.8266 241.538 68.0858 244.341 73.9454 245.644C73.9827 245.636 74.0087 245.642 74.0231 245.661C73.9973 245.655 73.9715 245.649 73.9454 245.644C71.564 246.126 23.0007 300.489 -1.35571 328.034Z" fill="#EED1B8" stroke="#FF8219" stroke-linecap="round" stroke-linejoin="round"/>
<path d="M142.019 207.194C85.6796 213.022 20.4032 307.829 -1.35567 328.422L-27 454.701L-6.79516 497C21.5045 475.924 44.1721 436.39 81.017 380.488C90.0314 366.811 115.08 344.223 126.477 334.639C142.926 315.341 176.6 273.481 179.709 260.426C190.588 223.125 165.332 203.309 142.019 207.194Z" fill="#EED1B8" stroke="#FF8219" stroke-linecap="round" stroke-linejoin="round"/>
<path d="M53.4297 288.013C65.7338 296.043 91.5076 315.056 96.1702 326.868M82.571 275.968C89.8239 280.631 104.796 292.753 106.661 303.944M78.2969 289.179C81.9234 291.121 89.8757 296.794 92.6733 303.944" stroke="#FF8219" stroke-linecap="round" stroke-linejoin="round"/>
<path d="M132.306 215.354C119.225 225.715 99.9008 249.857 127.255 263.534C131.14 266.384 140.31 274.103 145.905 282.185C147.77 285.915 158.339 275.579 166.11 268.585" stroke="#FF8219" stroke-linecap="round" stroke-linejoin="round"/>
<defs>
<linearGradient id="paint0_linear_7_4687" x1="90.6808" y1="-8.58614" x2="572.282" y2="299.737" gradientUnits="userSpaceOnUse">
<stop stop-color="#FF8219"/>
<stop offset="1" stop-color="#FF8219" stop-opacity="0"/>
</linearGradient>
</defs>
</svg>
