<svg version="1.1" xmlns="http://www.w3.org/2000/svg" viewBox="0 0 155.9 155.9">
	<style type="text/css">
		.st1{fill:#262626;}
		.st2{fill:#FFF;}
	</style>
		<circle class="st1" cx="78" cy="78" r="78" />
		<path class="st2" d="M65.3,104.6C43.6,92.4,30.8,60.9,30.8,60.9s-1-3.7-0.4-3.8s16.9,0,16.9,0s0.9,0.4,1.5,1.8
		c5.3,12,15.3,21,15.3,21V61.7c0,0-9.3-5.1,0-6.9h16.1c0,0,2.2,0,2.3,2.3c0,2.5,0,22.6,0,22.6s8.1-1.9,16.6-21.7
		c0.3-0.9,0.9-0.9,1.3-0.9s16.9,0,16.9,0s4.1-0.6,1.6,3.3S104,82.7,104,82.7s-0.8,1,0,1.5s15.7,17.9,15.7,17.9s1.7,2,0,2.5
		s-20.4,0-20.4,0s-8.4-8-15.4-11.8c-1.4,0.3-0.8,1.1-0.8,1.1l-0.2,9.9c0,0.6-0.5,1-1,1L65.3,104.6z" />
</svg>
