<svg version="1.1" xmlns="http://www.w3.org/2000/svg" viewBox="0 0 155.9 155.9">
	<style>
		.st1{fill:#262626;}
		.st2{fill:#fff;}
	</style>
	<circle class="st1" cx="78" cy="78" r="78" />
	<path class="st2" d="M113.9,107.4c-0.3,5.7-6,6.2-6,6.2H50.5c0,0-4.7,0-5.7-6.2V51c1-6.2,5.7-6.2,5.7-6.2h57.3c0,0,5.7,0.5,6,6.2
		V107.4z" />
	<path class="st1" d="M108.2,61.7c0,2.6-1.7,3.3-2.7,3.3h-9.2c-1,0-2.7-0.7-2.7-3.3v-7.5c0-2.6,1.7-3.3,2.7-3.3h9.2
		c1,0,2.7,0.7,2.7,3.3V61.7z" />
	<circle class="st1" cx="79.5" cy="81.3" r="13.3" />
	<path class="st1" d="M60.9,73.8c-1,2.3-1.5,4.9-1.5,7.6c0,11,9,20,20,20s20-9,20-20c0-2.8-0.6-5.4-1.6-7.8h8.8v32.5h-55V73.8
		L60.9,73.8z" />
</svg>
